<mxfile host="app.diagrams.net" modified="2023-09-28T08:43:42.597Z" agent="Mozilla/5.0 (Macintosh; Intel Mac OS X 10_15_7) AppleWebKit/605.1.15 (KHTML, like Gecko) Version/16.5.1 Safari/605.1.15" etag="-N_o8mpEcpAkJeD8MQHC" version="21.7.5" type="device">
  <diagram name="Page-1" id="2YBvvXClWsGukQMizWep">
    <mxGraphModel dx="1363" dy="879" grid="1" gridSize="10" guides="1" tooltips="1" connect="1" arrows="1" fold="1" page="1" pageScale="1" pageWidth="850" pageHeight="1100" math="0" shadow="0">
      <root>
        <mxCell id="0" />
        <mxCell id="1" parent="0" />
        <mxCell id="aM9ryv3xv72pqoxQDRHE-1" value="&lt;b&gt;&lt;u&gt;:User&lt;/u&gt;&lt;/b&gt;" style="shape=umlLifeline;perimeter=lifelinePerimeter;whiteSpace=wrap;html=1;container=0;dropTarget=0;collapsible=0;recursiveResize=0;outlineConnect=0;portConstraint=eastwest;newEdgeStyle={&quot;edgeStyle&quot;:&quot;elbowEdgeStyle&quot;,&quot;elbow&quot;:&quot;vertical&quot;,&quot;curved&quot;:0,&quot;rounded&quot;:0};" parent="1" vertex="1">
          <mxGeometry x="134" y="40" width="100" height="890" as="geometry" />
        </mxCell>
        <mxCell id="aM9ryv3xv72pqoxQDRHE-2" value="" style="html=1;points=[];perimeter=orthogonalPerimeter;outlineConnect=0;targetShapes=umlLifeline;portConstraint=eastwest;newEdgeStyle={&quot;edgeStyle&quot;:&quot;elbowEdgeStyle&quot;,&quot;elbow&quot;:&quot;vertical&quot;,&quot;curved&quot;:0,&quot;rounded&quot;:0};" parent="aM9ryv3xv72pqoxQDRHE-1" vertex="1">
          <mxGeometry x="45" y="70" width="10" height="50" as="geometry" />
        </mxCell>
        <mxCell id="Qx66roxFInfRwBva3ZIj-4" value="" style="html=1;points=[];perimeter=orthogonalPerimeter;outlineConnect=0;targetShapes=umlLifeline;portConstraint=eastwest;newEdgeStyle={&quot;edgeStyle&quot;:&quot;elbowEdgeStyle&quot;,&quot;elbow&quot;:&quot;vertical&quot;,&quot;curved&quot;:0,&quot;rounded&quot;:0};" parent="aM9ryv3xv72pqoxQDRHE-1" vertex="1">
          <mxGeometry x="45" y="220" width="10" height="580" as="geometry" />
        </mxCell>
        <mxCell id="aM9ryv3xv72pqoxQDRHE-5" value="&lt;b&gt;&lt;u&gt;:Login Interface&lt;/u&gt;&lt;/b&gt;" style="shape=umlLifeline;perimeter=lifelinePerimeter;whiteSpace=wrap;html=1;container=0;dropTarget=0;collapsible=0;recursiveResize=0;outlineConnect=0;portConstraint=eastwest;newEdgeStyle={&quot;edgeStyle&quot;:&quot;elbowEdgeStyle&quot;,&quot;elbow&quot;:&quot;vertical&quot;,&quot;curved&quot;:0,&quot;rounded&quot;:0};" parent="1" vertex="1">
          <mxGeometry x="440" y="40" width="100" height="890" as="geometry" />
        </mxCell>
        <mxCell id="aM9ryv3xv72pqoxQDRHE-6" value="" style="html=1;points=[];perimeter=orthogonalPerimeter;outlineConnect=0;targetShapes=umlLifeline;portConstraint=eastwest;newEdgeStyle={&quot;edgeStyle&quot;:&quot;elbowEdgeStyle&quot;,&quot;elbow&quot;:&quot;vertical&quot;,&quot;curved&quot;:0,&quot;rounded&quot;:0};" parent="aM9ryv3xv72pqoxQDRHE-5" vertex="1">
          <mxGeometry x="45" y="70" width="10" height="50" as="geometry" />
        </mxCell>
        <mxCell id="Qx66roxFInfRwBva3ZIj-5" value="" style="html=1;points=[];perimeter=orthogonalPerimeter;outlineConnect=0;targetShapes=umlLifeline;portConstraint=eastwest;newEdgeStyle={&quot;edgeStyle&quot;:&quot;elbowEdgeStyle&quot;,&quot;elbow&quot;:&quot;vertical&quot;,&quot;curved&quot;:0,&quot;rounded&quot;:0};" parent="aM9ryv3xv72pqoxQDRHE-5" vertex="1">
          <mxGeometry x="45" y="221" width="10" height="579" as="geometry" />
        </mxCell>
        <mxCell id="aM9ryv3xv72pqoxQDRHE-7" value="Request Login Form" style="html=1;verticalAlign=bottom;endArrow=block;edgeStyle=elbowEdgeStyle;elbow=vertical;curved=0;rounded=0;" parent="1" target="aM9ryv3xv72pqoxQDRHE-6" edge="1">
          <mxGeometry relative="1" as="geometry">
            <mxPoint x="188.9999999999999" y="110" as="sourcePoint" />
            <Array as="points">
              <mxPoint x="274" y="110" />
            </Array>
            <mxPoint x="358.9999999999999" y="110" as="targetPoint" />
          </mxGeometry>
        </mxCell>
        <mxCell id="aM9ryv3xv72pqoxQDRHE-9" value="Return Login Form" style="html=1;verticalAlign=bottom;endArrow=open;edgeStyle=elbowEdgeStyle;elbow=vertical;curved=0;rounded=0;dashed=1;endFill=0;" parent="1" edge="1" source="aM9ryv3xv72pqoxQDRHE-6">
          <mxGeometry relative="1" as="geometry">
            <mxPoint x="359" y="160" as="sourcePoint" />
            <Array as="points">
              <mxPoint x="284" y="160" />
            </Array>
            <mxPoint x="189" y="160" as="targetPoint" />
          </mxGeometry>
        </mxCell>
        <mxCell id="Qx66roxFInfRwBva3ZIj-1" value="&lt;b&gt;&lt;u&gt;:Database&lt;/u&gt;&lt;/b&gt;" style="shape=umlLifeline;perimeter=lifelinePerimeter;whiteSpace=wrap;html=1;container=0;dropTarget=0;collapsible=0;recursiveResize=0;outlineConnect=0;portConstraint=eastwest;newEdgeStyle={&quot;edgeStyle&quot;:&quot;elbowEdgeStyle&quot;,&quot;elbow&quot;:&quot;vertical&quot;,&quot;curved&quot;:0,&quot;rounded&quot;:0};" parent="1" vertex="1">
          <mxGeometry x="660" y="40" width="100" height="890" as="geometry" />
        </mxCell>
        <mxCell id="Qx66roxFInfRwBva3ZIj-2" value="" style="html=1;points=[];perimeter=orthogonalPerimeter;outlineConnect=0;targetShapes=umlLifeline;portConstraint=eastwest;newEdgeStyle={&quot;edgeStyle&quot;:&quot;elbowEdgeStyle&quot;,&quot;elbow&quot;:&quot;vertical&quot;,&quot;curved&quot;:0,&quot;rounded&quot;:0};" parent="Qx66roxFInfRwBva3ZIj-1" vertex="1">
          <mxGeometry x="45" y="231" width="10" height="569" as="geometry" />
        </mxCell>
        <mxCell id="Qx66roxFInfRwBva3ZIj-46" value="" style="html=1;points=[[0,0,0,0,5],[0,1,0,0,-5],[1,0,0,0,5],[1,1,0,0,-5]];perimeter=orthogonalPerimeter;outlineConnect=0;targetShapes=umlLifeline;portConstraint=eastwest;newEdgeStyle={&quot;curved&quot;:0,&quot;rounded&quot;:0};" parent="Qx66roxFInfRwBva3ZIj-1" vertex="1">
          <mxGeometry x="50.5" y="670" width="10" height="60" as="geometry" />
        </mxCell>
        <mxCell id="Qx66roxFInfRwBva3ZIj-47" value="" style="html=1;align=left;spacingLeft=2;endArrow=block;rounded=0;rounded=0;exitX=1;exitY=0;exitDx=0;exitDy=5;exitPerimeter=0;entryX=1;entryY=1;entryDx=0;entryDy=-5;entryPerimeter=0;" parent="Qx66roxFInfRwBva3ZIj-1" source="Qx66roxFInfRwBva3ZIj-46" target="Qx66roxFInfRwBva3ZIj-46" edge="1">
          <mxGeometry relative="1" as="geometry">
            <mxPoint x="70.5" y="670" as="sourcePoint" />
            <Array as="points">
              <mxPoint x="130.5" y="675" />
              <mxPoint x="130.5" y="705" />
              <mxPoint x="130.5" y="725" />
            </Array>
            <mxPoint x="70.5" y="700" as="targetPoint" />
          </mxGeometry>
        </mxCell>
        <mxCell id="Qx66roxFInfRwBva3ZIj-50" value="Update Password" style="edgeLabel;html=1;align=center;verticalAlign=middle;resizable=0;points=[];" parent="Qx66roxFInfRwBva3ZIj-47" vertex="1" connectable="0">
          <mxGeometry x="-0.0386" relative="1" as="geometry">
            <mxPoint as="offset" />
          </mxGeometry>
        </mxCell>
        <mxCell id="mO5I-FuyIvCkWUTKSh5h-10" value="" style="html=1;points=[[0,0,0,0,5],[0,1,0,0,-5],[1,0,0,0,5],[1,1,0,0,-5]];perimeter=orthogonalPerimeter;outlineConnect=0;targetShapes=umlLifeline;portConstraint=eastwest;newEdgeStyle={&quot;curved&quot;:0,&quot;rounded&quot;:0};" vertex="1" parent="Qx66roxFInfRwBva3ZIj-1">
          <mxGeometry x="50" y="233" width="10" height="50" as="geometry" />
        </mxCell>
        <mxCell id="mO5I-FuyIvCkWUTKSh5h-11" value="" style="html=1;align=left;spacingLeft=2;endArrow=block;rounded=0;rounded=0;exitX=1;exitY=0;exitDx=0;exitDy=5;exitPerimeter=0;entryX=1;entryY=1;entryDx=0;entryDy=-5;entryPerimeter=0;" edge="1" target="mO5I-FuyIvCkWUTKSh5h-10" parent="Qx66roxFInfRwBva3ZIj-1" source="mO5I-FuyIvCkWUTKSh5h-10">
          <mxGeometry relative="1" as="geometry">
            <mxPoint x="70" y="243" as="sourcePoint" />
            <Array as="points">
              <mxPoint x="90" y="238" />
              <mxPoint x="90" y="278" />
            </Array>
            <mxPoint x="70" y="283" as="targetPoint" />
          </mxGeometry>
        </mxCell>
        <mxCell id="mO5I-FuyIvCkWUTKSh5h-12" value="Validate" style="edgeLabel;html=1;align=center;verticalAlign=middle;resizable=0;points=[];" vertex="1" connectable="0" parent="mO5I-FuyIvCkWUTKSh5h-11">
          <mxGeometry x="0.073" y="1" relative="1" as="geometry">
            <mxPoint as="offset" />
          </mxGeometry>
        </mxCell>
        <mxCell id="Qx66roxFInfRwBva3ZIj-8" value="Fill The Form" style="html=1;verticalAlign=bottom;endArrow=block;curved=0;rounded=0;" parent="1" edge="1">
          <mxGeometry width="80" relative="1" as="geometry">
            <mxPoint x="189" y="262.0000000000001" as="sourcePoint" />
            <mxPoint x="485" y="262.0000000000001" as="targetPoint" />
            <Array as="points" />
            <mxPoint as="offset" />
          </mxGeometry>
        </mxCell>
        <mxCell id="Qx66roxFInfRwBva3ZIj-11" value="Enter User Credentials" style="html=1;verticalAlign=bottom;endArrow=block;curved=0;rounded=0;" parent="1" edge="1">
          <mxGeometry width="80" relative="1" as="geometry">
            <mxPoint x="495" y="271" as="sourcePoint" />
            <mxPoint x="705" y="271" as="targetPoint" />
            <Array as="points" />
          </mxGeometry>
        </mxCell>
        <mxCell id="Qx66roxFInfRwBva3ZIj-13" value="Send Validate Response" style="html=1;verticalAlign=bottom;endArrow=none;curved=0;rounded=0;dashed=1;endFill=0;startArrow=open;startFill=0;" parent="1" edge="1">
          <mxGeometry width="80" relative="1" as="geometry">
            <mxPoint x="495" y="354" as="sourcePoint" />
            <mxPoint x="705" y="354" as="targetPoint" />
            <Array as="points" />
            <mxPoint as="offset" />
          </mxGeometry>
        </mxCell>
        <mxCell id="Qx66roxFInfRwBva3ZIj-14" value="Login Successful" style="html=1;verticalAlign=bottom;endArrow=none;curved=0;rounded=0;dashed=1;endFill=0;startArrow=open;startFill=0;" parent="1" edge="1">
          <mxGeometry width="80" relative="1" as="geometry">
            <mxPoint x="189" y="366.0000000000001" as="sourcePoint" />
            <mxPoint x="485" y="365.9999999999999" as="targetPoint" />
            <Array as="points">
              <mxPoint x="239" y="366" />
            </Array>
          </mxGeometry>
        </mxCell>
        <mxCell id="Qx66roxFInfRwBva3ZIj-32" value="Request Password Reset&amp;nbsp;" style="html=1;verticalAlign=bottom;endArrow=block;curved=0;rounded=0;" parent="1" edge="1">
          <mxGeometry width="80" relative="1" as="geometry">
            <mxPoint x="189.5" y="650" as="sourcePoint" />
            <mxPoint x="485.5" y="650" as="targetPoint" />
            <Array as="points" />
          </mxGeometry>
        </mxCell>
        <mxCell id="Qx66roxFInfRwBva3ZIj-33" value="Alt" style="shape=umlFrame;whiteSpace=wrap;html=1;pointerEvents=0;strokeWidth=2;" parent="1" vertex="1">
          <mxGeometry x="85" y="193" width="765" height="617" as="geometry" />
        </mxCell>
        <mxCell id="Qx66roxFInfRwBva3ZIj-38" value="Password Reset Form" style="html=1;verticalAlign=bottom;endArrow=none;curved=0;rounded=0;dashed=1;endFill=0;startArrow=open;startFill=0;" parent="1" edge="1">
          <mxGeometry width="80" relative="1" as="geometry">
            <mxPoint x="189.5" y="684" as="sourcePoint" />
            <mxPoint x="485.5" y="684" as="targetPoint" />
            <Array as="points">
              <mxPoint x="244.5" y="684" />
            </Array>
          </mxGeometry>
        </mxCell>
        <mxCell id="Qx66roxFInfRwBva3ZIj-40" value="Fill The Form" style="html=1;verticalAlign=bottom;endArrow=block;curved=0;rounded=0;" parent="1" edge="1">
          <mxGeometry width="80" relative="1" as="geometry">
            <mxPoint x="189.5" y="716.5000000000001" as="sourcePoint" />
            <mxPoint x="485.5" y="716.5" as="targetPoint" />
            <Array as="points" />
          </mxGeometry>
        </mxCell>
        <mxCell id="Qx66roxFInfRwBva3ZIj-41" value="Validate User Credentials" style="html=1;verticalAlign=bottom;endArrow=block;curved=0;rounded=0;" parent="1" edge="1">
          <mxGeometry x="0.002" width="80" relative="1" as="geometry">
            <mxPoint x="495.5" y="717.4999999999999" as="sourcePoint" />
            <mxPoint x="705.5" y="717.4999999999999" as="targetPoint" />
            <Array as="points" />
            <mxPoint as="offset" />
          </mxGeometry>
        </mxCell>
        <mxCell id="Qx66roxFInfRwBva3ZIj-43" value="Password Update Response" style="html=1;verticalAlign=bottom;endArrow=none;curved=0;rounded=0;dashed=1;endFill=0;startArrow=open;startFill=0;" parent="1" edge="1">
          <mxGeometry width="80" relative="1" as="geometry">
            <mxPoint x="495.5" y="769.5" as="sourcePoint" />
            <mxPoint x="706.5" y="769.5" as="targetPoint" />
            <Array as="points" />
          </mxGeometry>
        </mxCell>
        <mxCell id="Qx66roxFInfRwBva3ZIj-51" value="Password updated Successfully" style="html=1;verticalAlign=bottom;endArrow=none;curved=0;rounded=0;dashed=1;endFill=0;startArrow=open;startFill=0;" parent="1" edge="1">
          <mxGeometry width="80" relative="1" as="geometry">
            <mxPoint x="190.5" y="769" as="sourcePoint" />
            <mxPoint x="485.5" y="768.8899999999999" as="targetPoint" />
            <Array as="points">
              <mxPoint x="268.5" y="768.89" />
            </Array>
          </mxGeometry>
        </mxCell>
        <mxCell id="Qx66roxFInfRwBva3ZIj-52" value="" style="line;strokeWidth=2;fillColor=none;align=left;verticalAlign=middle;spacingTop=-1;spacingLeft=3;spacingRight=3;rotatable=0;labelPosition=right;points=[];portConstraint=eastwest;strokeColor=inherit;dashed=1;" parent="1" vertex="1">
          <mxGeometry x="86" y="553" width="763" height="8" as="geometry" />
        </mxCell>
        <mxCell id="Qx66roxFInfRwBva3ZIj-55" value="&lt;b&gt;&lt;u&gt;:Dashboard&lt;/u&gt;&lt;/b&gt;" style="shape=umlLifeline;perimeter=lifelinePerimeter;whiteSpace=wrap;html=1;container=0;dropTarget=0;collapsible=0;recursiveResize=0;outlineConnect=0;portConstraint=eastwest;newEdgeStyle={&quot;edgeStyle&quot;:&quot;elbowEdgeStyle&quot;,&quot;elbow&quot;:&quot;vertical&quot;,&quot;curved&quot;:0,&quot;rounded&quot;:0};" parent="1" vertex="1">
          <mxGeometry x="280" y="40" width="100" height="890" as="geometry" />
        </mxCell>
        <mxCell id="mO5I-FuyIvCkWUTKSh5h-23" value="" style="html=1;points=[];perimeter=orthogonalPerimeter;outlineConnect=0;targetShapes=umlLifeline;portConstraint=eastwest;newEdgeStyle={&quot;edgeStyle&quot;:&quot;elbowEdgeStyle&quot;,&quot;elbow&quot;:&quot;vertical&quot;,&quot;curved&quot;:0,&quot;rounded&quot;:0};" vertex="1" parent="Qx66roxFInfRwBva3ZIj-55">
          <mxGeometry x="45" y="355" width="10" height="30" as="geometry" />
        </mxCell>
        <mxCell id="mO5I-FuyIvCkWUTKSh5h-4" value="Alt" style="shape=umlFrame;whiteSpace=wrap;html=1;pointerEvents=0;strokeWidth=2;" vertex="1" parent="1">
          <mxGeometry x="115" y="330" width="665" height="175" as="geometry" />
        </mxCell>
        <mxCell id="mO5I-FuyIvCkWUTKSh5h-6" value="" style="line;strokeWidth=2;fillColor=none;align=left;verticalAlign=middle;spacingTop=-1;spacingLeft=3;spacingRight=3;rotatable=0;labelPosition=right;points=[];portConstraint=eastwest;strokeColor=inherit;dashed=1;" vertex="1" parent="1">
          <mxGeometry x="116" y="434" width="664" height="8" as="geometry" />
        </mxCell>
        <mxCell id="mO5I-FuyIvCkWUTKSh5h-13" value="Send Error Message&amp;nbsp;" style="html=1;verticalAlign=bottom;endArrow=none;curved=0;rounded=0;dashed=1;endFill=0;startArrow=open;startFill=0;" edge="1" parent="1">
          <mxGeometry width="80" relative="1" as="geometry">
            <mxPoint x="495" y="463" as="sourcePoint" />
            <mxPoint x="705" y="463" as="targetPoint" />
            <Array as="points" />
          </mxGeometry>
        </mxCell>
        <mxCell id="mO5I-FuyIvCkWUTKSh5h-14" value="Invalid Credentials" style="html=1;verticalAlign=bottom;endArrow=none;curved=0;rounded=0;dashed=1;endFill=0;startArrow=open;startFill=0;" edge="1" parent="1">
          <mxGeometry width="80" relative="1" as="geometry">
            <mxPoint x="190" y="483.0000000000001" as="sourcePoint" />
            <mxPoint x="485" y="482.9999999999999" as="targetPoint" />
            <Array as="points">
              <mxPoint x="240" y="483" />
            </Array>
            <mxPoint as="offset" />
          </mxGeometry>
        </mxCell>
        <mxCell id="mO5I-FuyIvCkWUTKSh5h-15" value="&lt;span style=&quot;font-weight: 400;&quot;&gt;[valid]&lt;/span&gt;" style="text;align=center;fontStyle=1;verticalAlign=middle;spacingLeft=3;spacingRight=3;strokeColor=none;rotatable=0;points=[[0,0.5],[1,0.5]];portConstraint=eastwest;html=1;" vertex="1" parent="1">
          <mxGeometry x="172" y="327" width="80" height="26" as="geometry" />
        </mxCell>
        <mxCell id="mO5I-FuyIvCkWUTKSh5h-16" value="&lt;span style=&quot;font-weight: 400;&quot;&gt;[invalid]&lt;/span&gt;" style="text;align=center;fontStyle=1;verticalAlign=middle;spacingLeft=3;spacingRight=3;strokeColor=none;rotatable=0;points=[[0,0.5],[1,0.5]];portConstraint=eastwest;html=1;" vertex="1" parent="1">
          <mxGeometry x="177" y="437" width="80" height="26" as="geometry" />
        </mxCell>
        <mxCell id="mO5I-FuyIvCkWUTKSh5h-17" value="&lt;span style=&quot;font-weight: 400;&quot;&gt;[if remember the Password]&lt;/span&gt;" style="text;align=center;fontStyle=1;verticalAlign=middle;spacingLeft=3;spacingRight=3;strokeColor=none;rotatable=0;points=[[0,0.5],[1,0.5]];portConstraint=eastwest;html=1;" vertex="1" parent="1">
          <mxGeometry x="200" y="200" width="80" height="26" as="geometry" />
        </mxCell>
        <mxCell id="mO5I-FuyIvCkWUTKSh5h-22" value="&lt;span style=&quot;font-weight: 400;&quot;&gt;[if not remember the Password]&lt;/span&gt;" style="text;align=center;fontStyle=1;verticalAlign=middle;spacingLeft=3;spacingRight=3;strokeColor=none;rotatable=0;points=[[0,0.5],[1,0.5]];portConstraint=eastwest;html=1;" vertex="1" parent="1">
          <mxGeometry x="241" y="562" width="80" height="26" as="geometry" />
        </mxCell>
        <mxCell id="mO5I-FuyIvCkWUTKSh5h-27" value="Redirect to Dashboard" style="html=1;verticalAlign=bottom;endArrow=none;curved=0;rounded=0;dashed=1;endFill=0;startArrow=open;startFill=0;" edge="1" parent="1">
          <mxGeometry width="80" relative="1" as="geometry">
            <mxPoint x="335" y="396" as="sourcePoint" />
            <mxPoint x="485" y="396" as="targetPoint" />
            <Array as="points" />
            <mxPoint as="offset" />
          </mxGeometry>
        </mxCell>
      </root>
    </mxGraphModel>
  </diagram>
</mxfile>
